# xmcd
#
# Track frame offsets: 
#        150
#        13768
#        27683
#        38268
#        48762
#        61453
#        73726
#        84154
#        93569
#        112009
#        130948
#        140020
#        157522
#        168105
#        173965
#        183366
#        193587
#        212640
#        223023
#        237750
#        250171
#        257125
#        269980
#        280096
#        295213
#
# Disc length: 4142 seconds
#
# Revision: 4
# Processed by: cddbd v1.5.2PL0 Copyright (c) Steve Scherf et al.
# Submitted via: ExactAudioCopy v1.1
#
DISCID=6d102c19
DTITLE=Various Artist - Nashville Fiddles_1
DYEAR=2005
DGENRE=Instrumental
TTITLE0=Sunny Side of the Mountain
TTITLE1=Angel Band
TTITLE2=Black Eyed Susie
TTITLE3=Fire on the Mountain
TTITLE4=Listen to the Mockingbird
TTITLE5=Rock My Soul
TTITLE6=Wildwood Flower
TTITLE7=Home Sweet Home
TTITLE8=I Am a Man of Constant Sorrow
TTITLE9=Beautiful Isle of Somewhere
TTITLE10=My Old Kentucky Home
TTITLE11=You've Got to Walk That Lonesome Valley
TTITLE12=Cacklin' Hen
TTITLE13=Back Up and Push
TTITLE14=When the Saints Go Marching In
TTITLE15=I've Been Working on the Railroad
TTITLE16=Whispering Hope
TTITLE17=Give Me That Old Time Religion
TTITLE18=Cripple Creek
TTITLE19=Marine Hymn
TTITLE20=Bile Them Cabbage Down
TTITLE21=Swing Low Sweet Chariot
TTITLE22=Liberty
TTITLE23=Red Wing
TTITLE24=His Eye Is on the Sparrow
EXTD=
EXTT0=
EXTT1=
EXTT2=
EXTT3=
EXTT4=
EXTT5=
EXTT6=
EXTT7=
EXTT8=
EXTT9=
EXTT10=
EXTT11=
EXTT12=
EXTT13=
EXTT14=
EXTT15=
EXTT16=
EXTT17=
EXTT18=
EXTT19=
EXTT20=
EXTT21=
EXTT22=
EXTT23=
EXTT24=
PLAYORDER=
